<svg xmlns="http://www.w3.org/2000/svg" width="441.48" height="428.658" viewBox="0 0 441.48 428.658">
  <g id="Group_3854" data-name="Group 3854" transform="translate(-154.26 -160.671)">
    <path id="Path_19211" data-name="Path 19211" d="M583.228,351.259,387.949,170.909a38.538,38.538,0,0,0-64.7,28.329v37.686l25.521,23.692V199.238a12.763,12.763,0,0,1,7.827-11.953,14.316,14.316,0,0,1,5.444-1.106,12.386,12.386,0,0,1,8.508,3.488l195.279,180.35a13.016,13.016,0,0,1-.383,19.439L370.3,556.917a13.059,13.059,0,0,1-21.523-9.868V496.6l-25.521,22.246v28.2a38.536,38.536,0,0,0,63.8,29.264L582.292,408.851a38.581,38.581,0,0,0,1.064-57.592Z" fill="#99cceb"/>
    <path id="Path_19212" data-name="Path 19212" d="M414.278,355.087,218.871,174.61A38.495,38.495,0,0,0,154.26,202.9v24.245l25.521,23.692V202.9a12.763,12.763,0,0,1,7.784-11.868,13.877,13.877,0,0,1,5.4-1.148,12.463,12.463,0,0,1,8.507,3.488L396.966,373.845a12.763,12.763,0,0,1-.382,19.524L201.219,560.958a13.016,13.016,0,0,1-21.268-9.869V484.777l-25.521,22.2v43.77a38.28,38.28,0,0,0,22.416,35.005,39.136,39.136,0,0,0,16.206,3.574,38.283,38.283,0,0,0,24.968-9.358L413.215,412.594a38.281,38.281,0,0,0,1.063-57.507" fill="#2b8ecd"/>
  </g>
</svg>
